# xmcd
#
# Track frame offsets:
#	182
#	17857
#	37100
#	53420
#	70872
#	86550
#	104807
#	123102
#	142102
#	158425
#	175532
#	194675
#	212640
#	228737
#	246045
#	263327
#	279087
#	302667
#	322970
#
# Disc length: 4567
#
# Revision: 3
# Processed by: cddbd v1.5.1PL0 Copyright (c) Steve Scherf et al.
# Submitted via: EZCDDA 4.3.2
# Normalized: r2:DSETVAR1,TDELIM( - )
#
DISCID=0011d513
DTITLE=Various Artist - Women in Black
DYEAR=1900
DGENRE=
TTITLE0=Neneh Cherry - Manchild
TTITLE1=Refugee Camp All Stars - The sweetest thing
TTITLE2=Diana King - I say a little prayer
TTITLE3=Shola Ama - You might need somebody
TTITLE4=Yvette Michele - I'm not feeling you
TTITLE5=Mary J. Blige - Everything
TTITLE6=Missy Elliott - The rain
TTITLE7=En vogue - Whatever
TTITLE8=Zhane - Request Line
TTITLE9=Adriana Evans - Love is all around
TTITLE10=Melgroove - Pas toi
TTITLE11=Teri Moise - Les poèmes de Michelle
TTITLE12=Allure - Head over Heels
TTITLE13=Erykah Badu - On and On
TTITLE14=Eternal - Don't you love me
TTITLE15=D'influence - Magic
TTITLE16=Brownstone - 5 miles to empty
TTITLE17=Assorted Phlavors - Hiding place
TTITLE18=Simone Hines - Yeah ! Yeah ! Yeah !
EXTD=
EXTT0=
EXTT1=
EXTT2=
EXTT3=
EXTT4=
EXTT5=
EXTT6=
EXTT7=
EXTT8=
EXTT9=
EXTT10=
EXTT11=
EXTT12=
EXTT13=
EXTT14=
EXTT15=
EXTT16=
EXTT17=
EXTT18=
PLAYORDER=
